<?xml version="1.0" encoding="utf-8" standalone="no"?>
<!DOCTYPE svg PUBLIC "-//W3C//DTD SVG 1.1//EN"
  "http://www.w3.org/Graphics/SVG/1.1/DTD/svg11.dtd">
<svg xmlns:xlink="http://www.w3.org/1999/xlink" width="512.39952pt" height="399.39976pt" viewBox="0 0 512.39952 399.39976" xmlns="http://www.w3.org/2000/svg" version="1.1">
 <metadata>
  <rdf:RDF xmlns:dc="http://purl.org/dc/elements/1.1/" xmlns:cc="http://creativecommons.org/ns#" xmlns:rdf="http://www.w3.org/1999/02/22-rdf-syntax-ns#">
   <cc:Work>
    <dc:type rdf:resource="http://purl.org/dc/dcmitype/StillImage"/>
    <dc:date>2025-02-19T00:12:06.547441</dc:date>
    <dc:format>image/svg+xml</dc:format>
    <dc:creator>
     <cc:Agent>
      <dc:title>Matplotlib v3.10.0, https://matplotlib.org/</dc:title>
     </cc:Agent>
    </dc:creator>
   </cc:Work>
  </rdf:RDF>
 </metadata>
 <defs>
  <style type="text/css">*{stroke-linejoin: round; stroke-linecap: butt}</style>
 </defs>
 <g id="figure_1">
  <g id="patch_1">
   <path d="M 0 399.39976 
L 512.39952 399.39976 
L 512.39952 -0 
L 0 -0 
z
" style="fill: #ffffff"/>
  </g>
  <g id="axes_1">
   <g id="patch_2">
    <path d="M 62.92 344.830698 
L 505.19952 344.830698 
L 505.19952 38.20024 
L 62.92 38.20024 
z
" style="fill: #ffffff"/>
   </g>
   <g id="matplotlib.axis_1">
    <g id="xtick_1">
     <g id="line2d_1">
      <defs>
       <path id="m3508c924f0" d="M 0 0 
L 0 3.5 
" style="stroke: #000000; stroke-width: 0.8"/>
      </defs>
      <g>
       <use xlink:href="#m3508c924f0" x="94.511394" y="344.830698" style="stroke: #000000; stroke-width: 0.8"/>
      </g>
     </g>
     <g id="text_1">
      <!-- 300 -->
      <g transform="translate(81.011394 364.329448) scale(0.18 -0.18)">
       <defs>
        <path id="TimesNewRomanPSMT-33" d="M 325 3431 
Q 506 3859 782 4092 
Q 1059 4325 1472 4325 
Q 1981 4325 2253 3994 
Q 2459 3747 2459 3466 
Q 2459 3003 1878 2509 
Q 2269 2356 2469 2072 
Q 2669 1788 2669 1403 
Q 2669 853 2319 450 
Q 1863 -75 997 -75 
Q 569 -75 414 31 
Q 259 138 259 259 
Q 259 350 332 419 
Q 406 488 509 488 
Q 588 488 669 463 
Q 722 447 909 348 
Q 1097 250 1169 231 
Q 1284 197 1416 197 
Q 1734 197 1970 444 
Q 2206 691 2206 1028 
Q 2206 1275 2097 1509 
Q 2016 1684 1919 1775 
Q 1784 1900 1550 2001 
Q 1316 2103 1072 2103 
L 972 2103 
L 972 2197 
Q 1219 2228 1467 2375 
Q 1716 2522 1828 2728 
Q 1941 2934 1941 3181 
Q 1941 3503 1739 3701 
Q 1538 3900 1238 3900 
Q 753 3900 428 3381 
L 325 3431 
z
" transform="scale(0.015625)"/>
        <path id="TimesNewRomanPSMT-30" d="M 231 2094 
Q 231 2819 450 3342 
Q 669 3866 1031 4122 
Q 1313 4325 1613 4325 
Q 2100 4325 2488 3828 
Q 2972 3213 2972 2159 
Q 2972 1422 2759 906 
Q 2547 391 2217 158 
Q 1888 -75 1581 -75 
Q 975 -75 572 641 
Q 231 1244 231 2094 
z
M 844 2016 
Q 844 1141 1059 588 
Q 1238 122 1591 122 
Q 1759 122 1940 273 
Q 2122 425 2216 781 
Q 2359 1319 2359 2297 
Q 2359 3022 2209 3506 
Q 2097 3866 1919 4016 
Q 1791 4119 1609 4119 
Q 1397 4119 1231 3928 
Q 1006 3669 925 3112 
Q 844 2556 844 2016 
z
" transform="scale(0.015625)"/>
       </defs>
       <use xlink:href="#TimesNewRomanPSMT-33"/>
       <use xlink:href="#TimesNewRomanPSMT-30" transform="translate(50 0)"/>
       <use xlink:href="#TimesNewRomanPSMT-30" transform="translate(100 0)"/>
      </g>
     </g>
    </g>
    <g id="xtick_2">
     <g id="line2d_2">
      <g>
       <use xlink:href="#m3508c924f0" x="284.05976" y="344.830698" style="stroke: #000000; stroke-width: 0.8"/>
      </g>
     </g>
     <g id="text_2">
      <!-- 450 -->
      <g transform="translate(270.55976 364.329448) scale(0.18 -0.18)">
       <defs>
        <path id="TimesNewRomanPSMT-34" d="M 2978 1563 
L 2978 1119 
L 2409 1119 
L 2409 0 
L 1894 0 
L 1894 1119 
L 100 1119 
L 100 1519 
L 2066 4325 
L 2409 4325 
L 2409 1563 
L 2978 1563 
z
M 1894 1563 
L 1894 3666 
L 406 1563 
L 1894 1563 
z
" transform="scale(0.015625)"/>
        <path id="TimesNewRomanPSMT-35" d="M 2778 4238 
L 2534 3706 
L 1259 3706 
L 981 3138 
Q 1809 3016 2294 2522 
Q 2709 2097 2709 1522 
Q 2709 1188 2573 903 
Q 2438 619 2231 419 
Q 2025 219 1772 97 
Q 1413 -75 1034 -75 
Q 653 -75 479 54 
Q 306 184 306 341 
Q 306 428 378 495 
Q 450 563 559 563 
Q 641 563 702 538 
Q 763 513 909 409 
Q 1144 247 1384 247 
Q 1750 247 2026 523 
Q 2303 800 2303 1197 
Q 2303 1581 2056 1914 
Q 1809 2247 1375 2428 
Q 1034 2569 447 2591 
L 1259 4238 
L 2778 4238 
z
" transform="scale(0.015625)"/>
       </defs>
       <use xlink:href="#TimesNewRomanPSMT-34"/>
       <use xlink:href="#TimesNewRomanPSMT-35" transform="translate(50 0)"/>
       <use xlink:href="#TimesNewRomanPSMT-30" transform="translate(100 0)"/>
      </g>
     </g>
    </g>
    <g id="xtick_3">
     <g id="line2d_3">
      <g>
       <use xlink:href="#m3508c924f0" x="473.608126" y="344.830698" style="stroke: #000000; stroke-width: 0.8"/>
      </g>
     </g>
     <g id="text_3">
      <!-- 600 -->
      <g transform="translate(460.108126 364.329448) scale(0.18 -0.18)">
       <defs>
        <path id="TimesNewRomanPSMT-36" d="M 2869 4325 
L 2869 4209 
Q 2456 4169 2195 4045 
Q 1934 3922 1679 3669 
Q 1425 3416 1258 3105 
Q 1091 2794 978 2366 
Q 1428 2675 1881 2675 
Q 2316 2675 2634 2325 
Q 2953 1975 2953 1425 
Q 2953 894 2631 456 
Q 2244 -75 1606 -75 
Q 1172 -75 869 213 
Q 275 772 275 1663 
Q 275 2231 503 2743 
Q 731 3256 1154 3653 
Q 1578 4050 1965 4187 
Q 2353 4325 2688 4325 
L 2869 4325 
z
M 925 2138 
Q 869 1716 869 1456 
Q 869 1156 980 804 
Q 1091 453 1309 247 
Q 1469 100 1697 100 
Q 1969 100 2183 356 
Q 2397 613 2397 1088 
Q 2397 1622 2184 2012 
Q 1972 2403 1581 2403 
Q 1463 2403 1327 2353 
Q 1191 2303 925 2138 
z
" transform="scale(0.015625)"/>
       </defs>
       <use xlink:href="#TimesNewRomanPSMT-36"/>
       <use xlink:href="#TimesNewRomanPSMT-30" transform="translate(50 0)"/>
       <use xlink:href="#TimesNewRomanPSMT-30" transform="translate(100 0)"/>
      </g>
     </g>
    </g>
    <g id="text_4">
     <!-- $T_{\mathregular{wall}} / K$ -->
     <g transform="translate(252.81976 387.493823) scale(0.22 -0.22)">
      <defs>
       <path id="DejaVuSans-Oblique-54" d="M 378 4666 
L 4325 4666 
L 4225 4134 
L 2559 4134 
L 1759 0 
L 1125 0 
L 1925 4134 
L 275 4134 
L 378 4666 
z
" transform="scale(0.015625)"/>
       <path id="TimesNewRomanPSMT-77" d="M 41 2863 
L 1241 2863 
L 1241 2747 
Q 1075 2734 1023 2687 
Q 972 2641 972 2553 
Q 972 2456 1025 2319 
L 1638 672 
L 2253 2013 
L 2091 2434 
Q 2016 2622 1894 2694 
Q 1825 2738 1638 2747 
L 1638 2863 
L 3000 2863 
L 3000 2747 
Q 2775 2738 2681 2666 
Q 2619 2616 2619 2506 
Q 2619 2444 2644 2378 
L 3294 734 
L 3897 2319 
Q 3959 2488 3959 2588 
Q 3959 2647 3898 2694 
Q 3838 2741 3659 2747 
L 3659 2863 
L 4563 2863 
L 4563 2747 
Q 4291 2706 4163 2378 
L 3206 -88 
L 3078 -88 
L 2363 1741 
L 1528 -88 
L 1413 -88 
L 494 2319 
Q 403 2547 315 2626 
Q 228 2706 41 2747 
L 41 2863 
z
" transform="scale(0.015625)"/>
       <path id="TimesNewRomanPSMT-61" d="M 1822 413 
Q 1381 72 1269 19 
Q 1100 -59 909 -59 
Q 613 -59 420 144 
Q 228 347 228 678 
Q 228 888 322 1041 
Q 450 1253 767 1440 
Q 1084 1628 1822 1897 
L 1822 2009 
Q 1822 2438 1686 2597 
Q 1550 2756 1291 2756 
Q 1094 2756 978 2650 
Q 859 2544 859 2406 
L 866 2225 
Q 866 2081 792 2003 
Q 719 1925 600 1925 
Q 484 1925 411 2006 
Q 338 2088 338 2228 
Q 338 2497 613 2722 
Q 888 2947 1384 2947 
Q 1766 2947 2009 2819 
Q 2194 2722 2281 2516 
Q 2338 2381 2338 1966 
L 2338 994 
Q 2338 584 2353 492 
Q 2369 400 2405 369 
Q 2441 338 2488 338 
Q 2538 338 2575 359 
Q 2641 400 2828 588 
L 2828 413 
Q 2478 -56 2159 -56 
Q 2006 -56 1915 50 
Q 1825 156 1822 413 
z
M 1822 616 
L 1822 1706 
Q 1350 1519 1213 1441 
Q 966 1303 859 1153 
Q 753 1003 753 825 
Q 753 600 887 451 
Q 1022 303 1197 303 
Q 1434 303 1822 616 
z
" transform="scale(0.015625)"/>
       <path id="TimesNewRomanPSMT-6c" d="M 1184 4444 
L 1184 647 
Q 1184 378 1223 290 
Q 1263 203 1344 158 
Q 1425 113 1647 113 
L 1647 0 
L 244 0 
L 244 113 
Q 441 113 512 153 
Q 584 194 625 287 
Q 666 381 666 647 
L 666 3247 
Q 666 3731 644 3842 
Q 622 3953 573 3993 
Q 525 4034 450 4034 
Q 369 4034 244 3984 
L 191 4094 
L 1044 4444 
L 1184 4444 
z
" transform="scale(0.015625)"/>
       <path id="DejaVuSans-2f" d="M 1625 4666 
L 2156 4666 
L 531 -594 
L 0 -594 
L 1625 4666 
z
" transform="scale(0.015625)"/>
       <path id="DejaVuSans-Oblique-4b" d="M 1081 4666 
L 1716 4666 
L 1331 2700 
L 3781 4666 
L 4622 4666 
L 1850 2438 
L 3878 0 
L 3109 0 
L 1247 2272 
L 806 0 
L 172 0 
L 1081 4666 
z
" transform="scale(0.015625)"/>
      </defs>
      <use xlink:href="#DejaVuSans-Oblique-54" transform="translate(0 0.09375)"/>
      <use xlink:href="#TimesNewRomanPSMT-77" transform="translate(61.083984 -16.3125) scale(0.7)"/>
      <use xlink:href="#TimesNewRomanPSMT-61" transform="translate(111.635742 -16.3125) scale(0.7)"/>
      <use xlink:href="#TimesNewRomanPSMT-6c" transform="translate(142.705078 -16.3125) scale(0.7)"/>
      <use xlink:href="#TimesNewRomanPSMT-6c" transform="translate(162.15332 -16.3125) scale(0.7)"/>
      <use xlink:href="#DejaVuSans-2f" transform="translate(184.335938 0.09375)"/>
      <use xlink:href="#DejaVuSans-Oblique-4b" transform="translate(218.027344 0.09375)"/>
     </g>
    </g>
   </g>
   <g id="matplotlib.axis_2">
    <g id="ytick_1">
     <g id="line2d_4">
      <defs>
       <path id="m0a7b1b2c47" d="M 0 0 
L -3.5 0 
" style="stroke: #000000; stroke-width: 0.8"/>
      </defs>
      <g>
       <use xlink:href="#m0a7b1b2c47" x="62.92" y="330.893023" style="stroke: #000000; stroke-width: 0.8"/>
      </g>
     </g>
     <g id="text_5">
      <!-- 0.0 -->
      <g transform="translate(33.42 337.142398) scale(0.18 -0.18)">
       <defs>
        <path id="TimesNewRomanPSMT-2e" d="M 800 606 
Q 947 606 1047 504 
Q 1147 403 1147 259 
Q 1147 116 1045 14 
Q 944 -88 800 -88 
Q 656 -88 554 14 
Q 453 116 453 259 
Q 453 406 554 506 
Q 656 606 800 606 
z
" transform="scale(0.015625)"/>
       </defs>
       <use xlink:href="#TimesNewRomanPSMT-30"/>
       <use xlink:href="#TimesNewRomanPSMT-2e" transform="translate(50 0)"/>
       <use xlink:href="#TimesNewRomanPSMT-30" transform="translate(75 0)"/>
      </g>
     </g>
    </g>
    <g id="ytick_2">
     <g id="line2d_5">
      <g>
       <use xlink:href="#m0a7b1b2c47" x="62.92" y="189.393005" style="stroke: #000000; stroke-width: 0.8"/>
      </g>
     </g>
     <g id="text_6">
      <!-- 0.5 -->
      <g transform="translate(33.42 195.64238) scale(0.18 -0.18)">
       <use xlink:href="#TimesNewRomanPSMT-30"/>
       <use xlink:href="#TimesNewRomanPSMT-2e" transform="translate(50 0)"/>
       <use xlink:href="#TimesNewRomanPSMT-35" transform="translate(75 0)"/>
      </g>
     </g>
    </g>
    <g id="ytick_3">
     <g id="line2d_6">
      <g>
       <use xlink:href="#m0a7b1b2c47" x="62.92" y="47.892988" style="stroke: #000000; stroke-width: 0.8"/>
      </g>
     </g>
     <g id="text_7">
      <!-- 1.0 -->
      <g transform="translate(33.42 54.142363) scale(0.18 -0.18)">
       <defs>
        <path id="TimesNewRomanPSMT-31" d="M 750 3822 
L 1781 4325 
L 1884 4325 
L 1884 747 
Q 1884 391 1914 303 
Q 1944 216 2037 169 
Q 2131 122 2419 116 
L 2419 0 
L 825 0 
L 825 116 
Q 1125 122 1212 167 
Q 1300 213 1334 289 
Q 1369 366 1369 747 
L 1369 3034 
Q 1369 3497 1338 3628 
Q 1316 3728 1258 3775 
Q 1200 3822 1119 3822 
Q 1003 3822 797 3725 
L 750 3822 
z
" transform="scale(0.015625)"/>
       </defs>
       <use xlink:href="#TimesNewRomanPSMT-31"/>
       <use xlink:href="#TimesNewRomanPSMT-2e" transform="translate(50 0)"/>
       <use xlink:href="#TimesNewRomanPSMT-30" transform="translate(75 0)"/>
      </g>
     </g>
    </g>
    <g id="text_8">
     <!-- $X_{CO_2}/ -$ -->
     <g transform="translate(23.26 231.665469) rotate(-90) scale(0.22 -0.22)">
      <defs>
       <path id="DejaVuSans-Oblique-58" d="M 878 4666 
L 1516 4666 
L 2316 2981 
L 3763 4666 
L 4500 4666 
L 2578 2438 
L 3738 0 
L 3103 0 
L 2163 1966 
L 459 0 
L -275 0 
L 1906 2509 
L 878 4666 
z
" transform="scale(0.015625)"/>
       <path id="DejaVuSans-Oblique-43" d="M 4447 4306 
L 4319 3641 
Q 4019 3944 3683 4091 
Q 3347 4238 2956 4238 
Q 2422 4238 2017 3981 
Q 1613 3725 1319 3200 
Q 1131 2863 1032 2486 
Q 934 2109 934 1728 
Q 934 1091 1264 756 
Q 1594 422 2222 422 
Q 2656 422 3056 561 
Q 3456 700 3834 978 
L 3688 231 
Q 3316 72 2936 -9 
Q 2556 -91 2175 -91 
Q 1278 -91 773 396 
Q 269 884 269 1753 
Q 269 2309 461 2846 
Q 653 3384 1013 3828 
Q 1394 4300 1883 4525 
Q 2372 4750 3022 4750 
Q 3422 4750 3780 4639 
Q 4138 4528 4447 4306 
z
" transform="scale(0.015625)"/>
       <path id="DejaVuSans-Oblique-4f" d="M 2919 4238 
Q 2400 4238 2003 3986 
Q 1606 3734 1313 3219 
Q 1125 2891 1026 2522 
Q 928 2153 928 1778 
Q 928 1128 1239 775 
Q 1550 422 2119 422 
Q 2631 422 3032 676 
Q 3434 931 3719 1434 
Q 3909 1772 4009 2142 
Q 4109 2513 4109 2881 
Q 4109 3528 3796 3883 
Q 3484 4238 2919 4238 
z
M 2100 -91 
Q 1241 -91 748 418 
Q 256 928 256 1813 
Q 256 2319 448 2847 
Q 641 3375 978 3788 
Q 1375 4272 1862 4511 
Q 2350 4750 2938 4750 
Q 3794 4750 4287 4245 
Q 4781 3741 4781 2869 
Q 4781 2331 4593 1812 
Q 4406 1294 4056 872 
Q 3656 384 3173 146 
Q 2691 -91 2100 -91 
z
" transform="scale(0.015625)"/>
       <path id="DejaVuSans-32" d="M 1228 531 
L 3431 531 
L 3431 0 
L 469 0 
L 469 531 
Q 828 903 1448 1529 
Q 2069 2156 2228 2338 
Q 2531 2678 2651 2914 
Q 2772 3150 2772 3378 
Q 2772 3750 2511 3984 
Q 2250 4219 1831 4219 
Q 1534 4219 1204 4116 
Q 875 4013 500 3803 
L 500 4441 
Q 881 4594 1212 4672 
Q 1544 4750 1819 4750 
Q 2544 4750 2975 4387 
Q 3406 4025 3406 3419 
Q 3406 3131 3298 2873 
Q 3191 2616 2906 2266 
Q 2828 2175 2409 1742 
Q 1991 1309 1228 531 
z
" transform="scale(0.015625)"/>
       <path id="DejaVuSans-2212" d="M 678 2272 
L 4684 2272 
L 4684 1741 
L 678 1741 
L 678 2272 
z
" transform="scale(0.015625)"/>
      </defs>
      <use xlink:href="#DejaVuSans-Oblique-58" transform="translate(0 0.09375)"/>
      <use xlink:href="#DejaVuSans-Oblique-43" transform="translate(68.505859 -16.3125) scale(0.7)"/>
      <use xlink:href="#DejaVuSans-Oblique-4f" transform="translate(117.382812 -16.3125) scale(0.7)"/>
      <use xlink:href="#DejaVuSans-32" transform="translate(172.480469 -27.796875) scale(0.49)"/>
      <use xlink:href="#DejaVuSans-2f" transform="translate(208.304199 0.09375)"/>
      <use xlink:href="#DejaVuSans-2212" transform="translate(261.478027 0.09375)"/>
     </g>
    </g>
   </g>
   <g id="line2d_7">
    <path d="M 108.411608 329.950633 
L 123.575477 329.888373 
L 147.584937 329.794983 
L 169.067085 329.710083 
L 191.812889 328.696943 
L 222.140627 328.119623 
L 251.20471 322.459622 
L 273.950514 306.24372 
L 289.114383 274.010016 
L 296.696318 219.957009 
L 303.014597 67.70299 
L 334.605991 57.797989 
L 362.406418 53.552988 
L 393.997812 52.137988 
L 424.325551 53.835988 
" clip-path="url(#pca6eac846f)" style="fill: none; stroke: #808080; stroke-width: 2.5; stroke-linecap: square"/>
   </g>
   <g id="line2d_8">
    <path d="M 104.62064 329.961953 
L 122.311821 329.894033 
L 140.003002 330.287403 
L 155.166871 329.763853 
L 169.067085 329.712913 
L 176.649019 136.754999 
L 184.230954 97.134994 
L 191.812889 91.757993 
L 205.713102 87.512993 
L 229.722562 81.286992 
L 252.468366 75.626991 
L 282.796104 67.41999 
L 310.596531 59.778989 
L 335.869647 56.099989 
L 363.670074 52.137988 
L 386.415877 52.137988 
L 409.161681 52.420988 
" clip-path="url(#pca6eac846f)" style="fill: none; stroke: #808080; stroke-width: 2.5; stroke-linecap: square"/>
   </g>
   <g id="line2d_9">
    <path d="M 410.425337 57.88236 
L 397.262256 57.158225 
L 384.099175 57.592229 
L 370.936094 58.970504 
L 357.773013 60.974221 
L 344.609932 63.636863 
L 331.446851 67.064528 
L 318.28377 71.345881 
L 305.12069 77.480131 
L 291.957609 300.884857 
L 278.794528 318.196839 
L 265.631447 324.618123 
L 252.468366 327.68697 
L 239.305285 329.257101 
L 226.142204 330.072973 
L 212.979123 330.493184 
L 199.816042 330.704725 
L 186.652961 330.807853 
L 173.48988 330.856203 
L 160.326799 330.87788 
L 147.163718 330.887125 
L 134.000637 330.890857 
L 120.837556 330.892276 
L 107.674475 330.892781 
L 94.511394 330.892949 
" clip-path="url(#pca6eac846f)" style="fill: none; stroke: #004488; stroke-width: 2.5; stroke-linecap: square"/>
    <defs>
     <path id="m5aafecd7f7" d="M -0 3 
L 3 -3 
L -3 -3 
z
" style="stroke: #000000; stroke-linejoin: miter"/>
    </defs>
    <g clip-path="url(#pca6eac846f)">
     <use xlink:href="#m5aafecd7f7" x="410.425337" y="57.88236" style="stroke: #000000; stroke-linejoin: miter"/>
     <use xlink:href="#m5aafecd7f7" x="397.262256" y="57.158225" style="stroke: #000000; stroke-linejoin: miter"/>
     <use xlink:href="#m5aafecd7f7" x="384.099175" y="57.592229" style="stroke: #000000; stroke-linejoin: miter"/>
     <use xlink:href="#m5aafecd7f7" x="370.936094" y="58.970504" style="stroke: #000000; stroke-linejoin: miter"/>
     <use xlink:href="#m5aafecd7f7" x="357.773013" y="60.974221" style="stroke: #000000; stroke-linejoin: miter"/>
     <use xlink:href="#m5aafecd7f7" x="344.609932" y="63.636863" style="stroke: #000000; stroke-linejoin: miter"/>
     <use xlink:href="#m5aafecd7f7" x="331.446851" y="67.064528" style="stroke: #000000; stroke-linejoin: miter"/>
     <use xlink:href="#m5aafecd7f7" x="318.28377" y="71.345881" style="stroke: #000000; stroke-linejoin: miter"/>
     <use xlink:href="#m5aafecd7f7" x="305.12069" y="77.480131" style="stroke: #000000; stroke-linejoin: miter"/>
     <use xlink:href="#m5aafecd7f7" x="291.957609" y="300.884857" style="stroke: #000000; stroke-linejoin: miter"/>
     <use xlink:href="#m5aafecd7f7" x="278.794528" y="318.196839" style="stroke: #000000; stroke-linejoin: miter"/>
     <use xlink:href="#m5aafecd7f7" x="265.631447" y="324.618123" style="stroke: #000000; stroke-linejoin: miter"/>
     <use xlink:href="#m5aafecd7f7" x="252.468366" y="327.68697" style="stroke: #000000; stroke-linejoin: miter"/>
     <use xlink:href="#m5aafecd7f7" x="239.305285" y="329.257101" style="stroke: #000000; stroke-linejoin: miter"/>
     <use xlink:href="#m5aafecd7f7" x="226.142204" y="330.072973" style="stroke: #000000; stroke-linejoin: miter"/>
     <use xlink:href="#m5aafecd7f7" x="212.979123" y="330.493184" style="stroke: #000000; stroke-linejoin: miter"/>
     <use xlink:href="#m5aafecd7f7" x="199.816042" y="330.704725" style="stroke: #000000; stroke-linejoin: miter"/>
     <use xlink:href="#m5aafecd7f7" x="186.652961" y="330.807853" style="stroke: #000000; stroke-linejoin: miter"/>
     <use xlink:href="#m5aafecd7f7" x="173.48988" y="330.856203" style="stroke: #000000; stroke-linejoin: miter"/>
     <use xlink:href="#m5aafecd7f7" x="160.326799" y="330.87788" style="stroke: #000000; stroke-linejoin: miter"/>
     <use xlink:href="#m5aafecd7f7" x="147.163718" y="330.887125" style="stroke: #000000; stroke-linejoin: miter"/>
     <use xlink:href="#m5aafecd7f7" x="134.000637" y="330.890857" style="stroke: #000000; stroke-linejoin: miter"/>
     <use xlink:href="#m5aafecd7f7" x="120.837556" y="330.892276" style="stroke: #000000; stroke-linejoin: miter"/>
     <use xlink:href="#m5aafecd7f7" x="107.674475" y="330.892781" style="stroke: #000000; stroke-linejoin: miter"/>
     <use xlink:href="#m5aafecd7f7" x="94.511394" y="330.892949" style="stroke: #000000; stroke-linejoin: miter"/>
    </g>
   </g>
   <g id="line2d_10">
    <path d="M 94.511394 330.892949 
L 107.674475 330.892781 
L 120.837556 330.892276 
L 134.000637 330.890857 
L 147.163718 330.887125 
L 160.326799 330.87788 
L 173.48988 330.856203 
L 186.652961 330.807853 
L 199.816042 330.704725 
L 212.979123 330.493184 
L 226.142204 330.072973 
L 239.305285 329.257101 
L 252.468366 327.68697 
L 265.631447 324.618123 
L 278.794528 318.196839 
L 291.957609 300.884857 
L 305.12069 77.480131 
L 318.28377 71.345881 
L 331.446851 67.064528 
L 344.609932 63.745667 
L 357.773013 61.086572 
L 370.936094 59.066691 
L 384.099175 57.682667 
L 397.262256 57.216935 
L 410.425337 57.88236 
" clip-path="url(#pca6eac846f)" style="fill: none; stroke-dasharray: 9.25,4; stroke-dashoffset: 0; stroke: #aa3377; stroke-width: 2.5"/>
    <g clip-path="url(#pca6eac846f)">
     <use xlink:href="#m5aafecd7f7" x="94.511394" y="330.892949" style="stroke: #000000; stroke-linejoin: miter"/>
     <use xlink:href="#m5aafecd7f7" x="107.674475" y="330.892781" style="stroke: #000000; stroke-linejoin: miter"/>
     <use xlink:href="#m5aafecd7f7" x="120.837556" y="330.892276" style="stroke: #000000; stroke-linejoin: miter"/>
     <use xlink:href="#m5aafecd7f7" x="134.000637" y="330.890857" style="stroke: #000000; stroke-linejoin: miter"/>
     <use xlink:href="#m5aafecd7f7" x="147.163718" y="330.887125" style="stroke: #000000; stroke-linejoin: miter"/>
     <use xlink:href="#m5aafecd7f7" x="160.326799" y="330.87788" style="stroke: #000000; stroke-linejoin: miter"/>
     <use xlink:href="#m5aafecd7f7" x="173.48988" y="330.856203" style="stroke: #000000; stroke-linejoin: miter"/>
     <use xlink:href="#m5aafecd7f7" x="186.652961" y="330.807853" style="stroke: #000000; stroke-linejoin: miter"/>
     <use xlink:href="#m5aafecd7f7" x="199.816042" y="330.704725" style="stroke: #000000; stroke-linejoin: miter"/>
     <use xlink:href="#m5aafecd7f7" x="212.979123" y="330.493184" style="stroke: #000000; stroke-linejoin: miter"/>
     <use xlink:href="#m5aafecd7f7" x="226.142204" y="330.072973" style="stroke: #000000; stroke-linejoin: miter"/>
     <use xlink:href="#m5aafecd7f7" x="239.305285" y="329.257101" style="stroke: #000000; stroke-linejoin: miter"/>
     <use xlink:href="#m5aafecd7f7" x="252.468366" y="327.68697" style="stroke: #000000; stroke-linejoin: miter"/>
     <use xlink:href="#m5aafecd7f7" x="265.631447" y="324.618123" style="stroke: #000000; stroke-linejoin: miter"/>
     <use xlink:href="#m5aafecd7f7" x="278.794528" y="318.196839" style="stroke: #000000; stroke-linejoin: miter"/>
     <use xlink:href="#m5aafecd7f7" x="291.957609" y="300.884857" style="stroke: #000000; stroke-linejoin: miter"/>
     <use xlink:href="#m5aafecd7f7" x="305.12069" y="77.480131" style="stroke: #000000; stroke-linejoin: miter"/>
     <use xlink:href="#m5aafecd7f7" x="318.28377" y="71.345881" style="stroke: #000000; stroke-linejoin: miter"/>
     <use xlink:href="#m5aafecd7f7" x="331.446851" y="67.064528" style="stroke: #000000; stroke-linejoin: miter"/>
     <use xlink:href="#m5aafecd7f7" x="344.609932" y="63.745667" style="stroke: #000000; stroke-linejoin: miter"/>
     <use xlink:href="#m5aafecd7f7" x="357.773013" y="61.086572" style="stroke: #000000; stroke-linejoin: miter"/>
     <use xlink:href="#m5aafecd7f7" x="370.936094" y="59.066691" style="stroke: #000000; stroke-linejoin: miter"/>
     <use xlink:href="#m5aafecd7f7" x="384.099175" y="57.682667" style="stroke: #000000; stroke-linejoin: miter"/>
     <use xlink:href="#m5aafecd7f7" x="397.262256" y="57.216935" style="stroke: #000000; stroke-linejoin: miter"/>
     <use xlink:href="#m5aafecd7f7" x="410.425337" y="57.88236" style="stroke: #000000; stroke-linejoin: miter"/>
    </g>
   </g>
   <g id="line2d_11"/>
   <g id="line2d_12"/>
   <g id="patch_3">
    <path d="M 62.92 344.830698 
L 62.92 38.20024 
" style="fill: none; stroke: #000000; stroke-width: 0.8; stroke-linejoin: miter; stroke-linecap: square"/>
   </g>
   <g id="patch_4">
    <path d="M 505.19952 344.830698 
L 505.19952 38.20024 
" style="fill: none; stroke: #000000; stroke-width: 0.8; stroke-linejoin: miter; stroke-linecap: square"/>
   </g>
   <g id="patch_5">
    <path d="M 62.92 344.830698 
L 505.19952 344.830698 
" style="fill: none; stroke: #000000; stroke-width: 0.8; stroke-linejoin: miter; stroke-linecap: square"/>
   </g>
   <g id="patch_6">
    <path d="M 62.92 38.20024 
L 505.19952 38.20024 
" style="fill: none; stroke: #000000; stroke-width: 0.8; stroke-linejoin: miter; stroke-linecap: square"/>
   </g>
   <g id="legend_1">
    <g id="patch_7">
     <path d="M 378.81452 336.830698 
L 493.99952 336.830698 
Q 497.19952 336.830698 497.19952 333.630697 
L 497.19952 289.955698 
Q 497.19952 286.755697 493.99952 286.755697 
L 378.81452 286.755697 
Q 375.61452 286.755697 375.61452 289.955698 
L 375.61452 333.630697 
Q 375.61452 336.830698 378.81452 336.830698 
z
" style="fill: #ffffff; opacity: 0.8; stroke: #cccccc; stroke-linejoin: miter"/>
    </g>
    <g id="line2d_13">
     <path d="M 382.01452 298.755697 
L 398.01452 298.755697 
L 414.01452 298.755697 
" style="fill: none; stroke: #004488; stroke-width: 2.5; stroke-linecap: square"/>
     <g>
      <use xlink:href="#m5aafecd7f7" x="398.01452" y="298.755697" style="stroke: #000000; stroke-linejoin: miter"/>
     </g>
    </g>
    <g id="text_9">
     <!-- extinction -->
     <g transform="translate(426.81452 304.355698) scale(0.16 -0.16)">
      <defs>
       <path id="TimesNewRomanPSMT-65" d="M 681 1784 
Q 678 1147 991 784 
Q 1303 422 1725 422 
Q 2006 422 2214 576 
Q 2422 731 2563 1106 
L 2659 1044 
Q 2594 616 2278 264 
Q 1963 -88 1488 -88 
Q 972 -88 605 314 
Q 238 716 238 1394 
Q 238 2128 614 2539 
Q 991 2950 1559 2950 
Q 2041 2950 2350 2633 
Q 2659 2316 2659 1784 
L 681 1784 
z
M 681 1966 
L 2006 1966 
Q 1991 2241 1941 2353 
Q 1863 2528 1708 2628 
Q 1553 2728 1384 2728 
Q 1125 2728 920 2526 
Q 716 2325 681 1966 
z
" transform="scale(0.015625)"/>
       <path id="TimesNewRomanPSMT-78" d="M 84 2863 
L 1431 2863 
L 1431 2747 
Q 1303 2747 1251 2703 
Q 1200 2659 1200 2588 
Q 1200 2513 1309 2356 
Q 1344 2306 1413 2200 
L 1616 1875 
L 1850 2200 
Q 2075 2509 2075 2591 
Q 2075 2656 2022 2701 
Q 1969 2747 1850 2747 
L 1850 2863 
L 2819 2863 
L 2819 2747 
Q 2666 2738 2553 2663 
Q 2400 2556 2134 2200 
L 1744 1678 
L 2456 653 
Q 2719 275 2831 198 
Q 2944 122 3122 113 
L 3122 0 
L 1772 0 
L 1772 113 
Q 1913 113 1991 175 
Q 2050 219 2050 291 
Q 2050 363 1850 653 
L 1431 1266 
L 972 653 
Q 759 369 759 316 
Q 759 241 829 180 
Q 900 119 1041 113 
L 1041 0 
L 106 0 
L 106 113 
Q 219 128 303 191 
Q 422 281 703 653 
L 1303 1450 
L 759 2238 
Q 528 2575 401 2661 
Q 275 2747 84 2747 
L 84 2863 
z
" transform="scale(0.015625)"/>
       <path id="TimesNewRomanPSMT-74" d="M 1031 3803 
L 1031 2863 
L 1700 2863 
L 1700 2644 
L 1031 2644 
L 1031 788 
Q 1031 509 1111 412 
Q 1191 316 1316 316 
Q 1419 316 1516 380 
Q 1613 444 1666 569 
L 1788 569 
Q 1678 263 1478 108 
Q 1278 -47 1066 -47 
Q 922 -47 784 33 
Q 647 113 581 261 
Q 516 409 516 719 
L 516 2644 
L 63 2644 
L 63 2747 
Q 234 2816 414 2980 
Q 594 3144 734 3369 
Q 806 3488 934 3803 
L 1031 3803 
z
" transform="scale(0.015625)"/>
       <path id="TimesNewRomanPSMT-69" d="M 928 4444 
Q 1059 4444 1151 4351 
Q 1244 4259 1244 4128 
Q 1244 3997 1151 3903 
Q 1059 3809 928 3809 
Q 797 3809 703 3903 
Q 609 3997 609 4128 
Q 609 4259 701 4351 
Q 794 4444 928 4444 
z
M 1188 2947 
L 1188 647 
Q 1188 378 1227 289 
Q 1266 200 1342 156 
Q 1419 113 1622 113 
L 1622 0 
L 231 0 
L 231 113 
Q 441 113 512 153 
Q 584 194 626 287 
Q 669 381 669 647 
L 669 1750 
Q 669 2216 641 2353 
Q 619 2453 572 2492 
Q 525 2531 444 2531 
Q 356 2531 231 2484 
L 188 2597 
L 1050 2947 
L 1188 2947 
z
" transform="scale(0.015625)"/>
       <path id="TimesNewRomanPSMT-6e" d="M 1034 2341 
Q 1538 2947 1994 2947 
Q 2228 2947 2397 2830 
Q 2566 2713 2666 2444 
Q 2734 2256 2734 1869 
L 2734 647 
Q 2734 375 2778 278 
Q 2813 200 2889 156 
Q 2966 113 3172 113 
L 3172 0 
L 1756 0 
L 1756 113 
L 1816 113 
Q 2016 113 2095 173 
Q 2175 234 2206 353 
Q 2219 400 2219 647 
L 2219 1819 
Q 2219 2209 2117 2386 
Q 2016 2563 1775 2563 
Q 1403 2563 1034 2156 
L 1034 647 
Q 1034 356 1069 288 
Q 1113 197 1189 155 
Q 1266 113 1500 113 
L 1500 0 
L 84 0 
L 84 113 
L 147 113 
Q 366 113 442 223 
Q 519 334 519 647 
L 519 1709 
Q 519 2225 495 2337 
Q 472 2450 423 2490 
Q 375 2531 294 2531 
Q 206 2531 84 2484 
L 38 2597 
L 900 2947 
L 1034 2947 
L 1034 2341 
z
" transform="scale(0.015625)"/>
       <path id="TimesNewRomanPSMT-63" d="M 2631 1088 
Q 2516 522 2178 217 
Q 1841 -88 1431 -88 
Q 944 -88 581 321 
Q 219 731 219 1428 
Q 219 2103 620 2525 
Q 1022 2947 1584 2947 
Q 2006 2947 2278 2723 
Q 2550 2500 2550 2259 
Q 2550 2141 2473 2067 
Q 2397 1994 2259 1994 
Q 2075 1994 1981 2113 
Q 1928 2178 1911 2362 
Q 1894 2547 1784 2644 
Q 1675 2738 1481 2738 
Q 1169 2738 978 2506 
Q 725 2200 725 1697 
Q 725 1184 976 792 
Q 1228 400 1656 400 
Q 1963 400 2206 609 
Q 2378 753 2541 1131 
L 2631 1088 
z
" transform="scale(0.015625)"/>
       <path id="TimesNewRomanPSMT-6f" d="M 1600 2947 
Q 2250 2947 2644 2453 
Q 2978 2031 2978 1484 
Q 2978 1100 2793 706 
Q 2609 313 2286 112 
Q 1963 -88 1566 -88 
Q 919 -88 538 428 
Q 216 863 216 1403 
Q 216 1797 411 2186 
Q 606 2575 925 2761 
Q 1244 2947 1600 2947 
z
M 1503 2744 
Q 1338 2744 1170 2645 
Q 1003 2547 900 2300 
Q 797 2053 797 1666 
Q 797 1041 1045 587 
Q 1294 134 1700 134 
Q 2003 134 2200 384 
Q 2397 634 2397 1244 
Q 2397 2006 2069 2444 
Q 1847 2744 1503 2744 
z
" transform="scale(0.015625)"/>
      </defs>
      <use xlink:href="#TimesNewRomanPSMT-65"/>
      <use xlink:href="#TimesNewRomanPSMT-78" transform="translate(44.384766 0)"/>
      <use xlink:href="#TimesNewRomanPSMT-74" transform="translate(94.384766 0)"/>
      <use xlink:href="#TimesNewRomanPSMT-69" transform="translate(122.167969 0)"/>
      <use xlink:href="#TimesNewRomanPSMT-6e" transform="translate(149.951172 0)"/>
      <use xlink:href="#TimesNewRomanPSMT-63" transform="translate(199.951172 0)"/>
      <use xlink:href="#TimesNewRomanPSMT-74" transform="translate(244.335938 0)"/>
      <use xlink:href="#TimesNewRomanPSMT-69" transform="translate(272.119141 0)"/>
      <use xlink:href="#TimesNewRomanPSMT-6f" transform="translate(299.902344 0)"/>
      <use xlink:href="#TimesNewRomanPSMT-6e" transform="translate(349.902344 0)"/>
     </g>
    </g>
    <g id="line2d_14">
     <path d="M 382.01452 321.378197 
L 398.01452 321.378197 
L 414.01452 321.378197 
" style="fill: none; stroke-dasharray: 9.25,4; stroke-dashoffset: 0; stroke: #aa3377; stroke-width: 2.5"/>
     <g>
      <use xlink:href="#m5aafecd7f7" x="398.01452" y="321.378197" style="stroke: #000000; stroke-linejoin: miter"/>
     </g>
    </g>
    <g id="text_10">
     <!-- ignition -->
     <g transform="translate(426.81452 326.978198) scale(0.16 -0.16)">
      <defs>
       <path id="TimesNewRomanPSMT-67" d="M 966 1044 
Q 703 1172 562 1401 
Q 422 1631 422 1909 
Q 422 2334 742 2640 
Q 1063 2947 1563 2947 
Q 1972 2947 2272 2747 
L 2878 2747 
Q 3013 2747 3034 2739 
Q 3056 2731 3066 2713 
Q 3084 2684 3084 2613 
Q 3084 2531 3069 2500 
Q 3059 2484 3036 2475 
Q 3013 2466 2878 2466 
L 2506 2466 
Q 2681 2241 2681 1891 
Q 2681 1491 2375 1206 
Q 2069 922 1553 922 
Q 1341 922 1119 984 
Q 981 866 932 777 
Q 884 688 884 625 
Q 884 572 936 522 
Q 988 472 1138 450 
Q 1225 438 1575 428 
Q 2219 413 2409 384 
Q 2700 344 2873 169 
Q 3047 -6 3047 -263 
Q 3047 -616 2716 -925 
Q 2228 -1381 1444 -1381 
Q 841 -1381 425 -1109 
Q 191 -953 191 -784 
Q 191 -709 225 -634 
Q 278 -519 444 -313 
Q 466 -284 763 25 
Q 600 122 533 198 
Q 466 275 466 372 
Q 466 481 555 628 
Q 644 775 966 1044 
z
M 1509 2797 
Q 1278 2797 1122 2612 
Q 966 2428 966 2047 
Q 966 1553 1178 1281 
Q 1341 1075 1591 1075 
Q 1828 1075 1981 1253 
Q 2134 1431 2134 1813 
Q 2134 2309 1919 2591 
Q 1759 2797 1509 2797 
z
M 934 0 
Q 788 -159 713 -296 
Q 638 -434 638 -550 
Q 638 -700 819 -813 
Q 1131 -1006 1722 -1006 
Q 2284 -1006 2551 -807 
Q 2819 -609 2819 -384 
Q 2819 -222 2659 -153 
Q 2497 -84 2016 -72 
Q 1313 -53 934 0 
z
" transform="scale(0.015625)"/>
      </defs>
      <use xlink:href="#TimesNewRomanPSMT-69"/>
      <use xlink:href="#TimesNewRomanPSMT-67" transform="translate(27.783203 0)"/>
      <use xlink:href="#TimesNewRomanPSMT-6e" transform="translate(77.783203 0)"/>
      <use xlink:href="#TimesNewRomanPSMT-69" transform="translate(127.783203 0)"/>
      <use xlink:href="#TimesNewRomanPSMT-74" transform="translate(155.566406 0)"/>
      <use xlink:href="#TimesNewRomanPSMT-69" transform="translate(183.349609 0)"/>
      <use xlink:href="#TimesNewRomanPSMT-6f" transform="translate(211.132812 0)"/>
      <use xlink:href="#TimesNewRomanPSMT-6e" transform="translate(261.132812 0)"/>
     </g>
    </g>
   </g>
  </g>
  <g id="legend_2">
   <g id="patch_8">
    <path d="M 155.20601 34.6225 
L 437.83351 34.6225 
Q 441.03351 34.6225 441.03351 31.4225 
L 441.03351 10.4 
Q 441.03351 7.2 437.83351 7.2 
L 155.20601 7.2 
Q 152.00601 7.2 152.00601 10.4 
L 152.00601 31.4225 
Q 152.00601 34.6225 155.20601 34.6225 
z
" style="fill: #ffffff; opacity: 0.8; stroke: #cccccc; stroke-linejoin: miter"/>
   </g>
   <g id="line2d_15">
    <path d="M 158.40601 19.2 
L 174.40601 19.2 
L 190.40601 19.2 
" style="fill: none; stroke: #808080; stroke-width: 2.5; stroke-linecap: square"/>
   </g>
   <g id="text_11">
    <!-- Bremer et. al. -->
    <g transform="translate(203.20601 24.8) scale(0.16 -0.16)">
     <defs>
      <path id="TimesNewRomanPSMT-42" d="M 2956 2163 
Q 3397 2069 3616 1863 
Q 3919 1575 3919 1159 
Q 3919 844 3719 555 
Q 3519 266 3170 133 
Q 2822 0 2106 0 
L 106 0 
L 106 116 
L 266 116 
Q 531 116 647 284 
Q 719 394 719 750 
L 719 3488 
Q 719 3881 628 3984 
Q 506 4122 266 4122 
L 106 4122 
L 106 4238 
L 1938 4238 
Q 2450 4238 2759 4163 
Q 3228 4050 3475 3764 
Q 3722 3478 3722 3106 
Q 3722 2788 3528 2536 
Q 3334 2284 2956 2163 
z
M 1319 2331 
Q 1434 2309 1582 2298 
Q 1731 2288 1909 2288 
Q 2366 2288 2595 2386 
Q 2825 2484 2947 2687 
Q 3069 2891 3069 3131 
Q 3069 3503 2766 3765 
Q 2463 4028 1881 4028 
Q 1569 4028 1319 3959 
L 1319 2331 
z
M 1319 306 
Q 1681 222 2034 222 
Q 2600 222 2897 476 
Q 3194 731 3194 1106 
Q 3194 1353 3059 1581 
Q 2925 1809 2622 1940 
Q 2319 2072 1872 2072 
Q 1678 2072 1540 2065 
Q 1403 2059 1319 2044 
L 1319 306 
z
" transform="scale(0.015625)"/>
      <path id="TimesNewRomanPSMT-72" d="M 1038 2947 
L 1038 2303 
Q 1397 2947 1775 2947 
Q 1947 2947 2059 2842 
Q 2172 2738 2172 2600 
Q 2172 2478 2090 2393 
Q 2009 2309 1897 2309 
Q 1788 2309 1652 2417 
Q 1516 2525 1450 2525 
Q 1394 2525 1328 2463 
Q 1188 2334 1038 2041 
L 1038 669 
Q 1038 431 1097 309 
Q 1138 225 1241 169 
Q 1344 113 1538 113 
L 1538 0 
L 72 0 
L 72 113 
Q 291 113 397 181 
Q 475 231 506 341 
Q 522 394 522 644 
L 522 1753 
Q 522 2253 501 2348 
Q 481 2444 426 2487 
Q 372 2531 291 2531 
Q 194 2531 72 2484 
L 41 2597 
L 906 2947 
L 1038 2947 
z
" transform="scale(0.015625)"/>
      <path id="TimesNewRomanPSMT-6d" d="M 1050 2338 
Q 1363 2650 1419 2697 
Q 1559 2816 1721 2881 
Q 1884 2947 2044 2947 
Q 2313 2947 2506 2790 
Q 2700 2634 2766 2338 
Q 3088 2713 3309 2830 
Q 3531 2947 3766 2947 
Q 3994 2947 4170 2830 
Q 4347 2713 4450 2447 
Q 4519 2266 4519 1878 
L 4519 647 
Q 4519 378 4559 278 
Q 4591 209 4675 161 
Q 4759 113 4950 113 
L 4950 0 
L 3538 0 
L 3538 113 
L 3597 113 
Q 3781 113 3884 184 
Q 3956 234 3988 344 
Q 4000 397 4000 647 
L 4000 1878 
Q 4000 2228 3916 2372 
Q 3794 2572 3525 2572 
Q 3359 2572 3192 2489 
Q 3025 2406 2788 2181 
L 2781 2147 
L 2788 2013 
L 2788 647 
Q 2788 353 2820 281 
Q 2853 209 2943 161 
Q 3034 113 3253 113 
L 3253 0 
L 1806 0 
L 1806 113 
Q 2044 113 2133 169 
Q 2222 225 2256 338 
Q 2272 391 2272 647 
L 2272 1878 
Q 2272 2228 2169 2381 
Q 2031 2581 1784 2581 
Q 1616 2581 1450 2491 
Q 1191 2353 1050 2181 
L 1050 647 
Q 1050 366 1089 281 
Q 1128 197 1204 155 
Q 1281 113 1516 113 
L 1516 0 
L 100 0 
L 100 113 
Q 297 113 375 155 
Q 453 197 493 289 
Q 534 381 534 647 
L 534 1741 
Q 534 2213 506 2350 
Q 484 2453 437 2492 
Q 391 2531 309 2531 
Q 222 2531 100 2484 
L 53 2597 
L 916 2947 
L 1050 2947 
L 1050 2338 
z
" transform="scale(0.015625)"/>
      <path id="TimesNewRomanPSMT-20" transform="scale(0.015625)"/>
     </defs>
     <use xlink:href="#TimesNewRomanPSMT-42"/>
     <use xlink:href="#TimesNewRomanPSMT-72" transform="translate(66.699219 0)"/>
     <use xlink:href="#TimesNewRomanPSMT-65" transform="translate(100 0)"/>
     <use xlink:href="#TimesNewRomanPSMT-6d" transform="translate(144.384766 0)"/>
     <use xlink:href="#TimesNewRomanPSMT-65" transform="translate(222.167969 0)"/>
     <use xlink:href="#TimesNewRomanPSMT-72" transform="translate(266.552734 0)"/>
     <use xlink:href="#TimesNewRomanPSMT-20" transform="translate(299.853516 0)"/>
     <use xlink:href="#TimesNewRomanPSMT-65" transform="translate(324.853516 0)"/>
     <use xlink:href="#TimesNewRomanPSMT-74" transform="translate(369.238281 0)"/>
     <use xlink:href="#TimesNewRomanPSMT-2e" transform="translate(397.021484 0)"/>
     <use xlink:href="#TimesNewRomanPSMT-20" transform="translate(422.021484 0)"/>
     <use xlink:href="#TimesNewRomanPSMT-61" transform="translate(447.021484 0)"/>
     <use xlink:href="#TimesNewRomanPSMT-6c" transform="translate(491.40625 0)"/>
     <use xlink:href="#TimesNewRomanPSMT-2e" transform="translate(519.189453 0)"/>
    </g>
   </g>
   <g id="line2d_16">
    <path d="M 322.27851 19.2 
L 338.27851 19.2 
L 354.27851 19.2 
" style="fill: none; stroke: #000000; stroke-width: 2.5; stroke-linecap: square"/>
    <defs>
     <path id="mc0fd05172c" d="M -0 5 
L 5 -5 
L -5 -5 
z
" style="stroke: #000000; stroke-linejoin: miter"/>
    </defs>
    <g>
     <use xlink:href="#mc0fd05172c" x="338.27851" y="19.2" style="stroke: #000000; stroke-linejoin: miter"/>
    </g>
   </g>
   <g id="text_12">
    <!-- simulation -->
    <g transform="translate(367.07851 24.8) scale(0.16 -0.16)">
     <defs>
      <path id="TimesNewRomanPSMT-73" d="M 2050 2947 
L 2050 1972 
L 1947 1972 
Q 1828 2431 1642 2597 
Q 1456 2763 1169 2763 
Q 950 2763 815 2647 
Q 681 2531 681 2391 
Q 681 2216 781 2091 
Q 878 1963 1175 1819 
L 1631 1597 
Q 2266 1288 2266 781 
Q 2266 391 1970 151 
Q 1675 -88 1309 -88 
Q 1047 -88 709 6 
Q 606 38 541 38 
Q 469 38 428 -44 
L 325 -44 
L 325 978 
L 428 978 
Q 516 541 762 319 
Q 1009 97 1316 97 
Q 1531 97 1667 223 
Q 1803 350 1803 528 
Q 1803 744 1651 891 
Q 1500 1038 1047 1263 
Q 594 1488 453 1669 
Q 313 1847 313 2119 
Q 313 2472 555 2709 
Q 797 2947 1181 2947 
Q 1350 2947 1591 2875 
Q 1750 2828 1803 2828 
Q 1853 2828 1881 2850 
Q 1909 2872 1947 2947 
L 2050 2947 
z
" transform="scale(0.015625)"/>
      <path id="TimesNewRomanPSMT-75" d="M 2709 2863 
L 2709 1128 
Q 2709 631 2732 520 
Q 2756 409 2807 365 
Q 2859 322 2928 322 
Q 3025 322 3147 375 
L 3191 266 
L 2334 -88 
L 2194 -88 
L 2194 519 
Q 1825 119 1631 15 
Q 1438 -88 1222 -88 
Q 981 -88 804 51 
Q 628 191 559 409 
Q 491 628 491 1028 
L 491 2306 
Q 491 2509 447 2587 
Q 403 2666 317 2708 
Q 231 2750 6 2747 
L 6 2863 
L 1009 2863 
L 1009 947 
Q 1009 547 1148 422 
Q 1288 297 1484 297 
Q 1619 297 1789 381 
Q 1959 466 2194 703 
L 2194 2325 
Q 2194 2569 2105 2655 
Q 2016 2741 1734 2747 
L 1734 2863 
L 2709 2863 
z
" transform="scale(0.015625)"/>
     </defs>
     <use xlink:href="#TimesNewRomanPSMT-73"/>
     <use xlink:href="#TimesNewRomanPSMT-69" transform="translate(38.916016 0)"/>
     <use xlink:href="#TimesNewRomanPSMT-6d" transform="translate(66.699219 0)"/>
     <use xlink:href="#TimesNewRomanPSMT-75" transform="translate(144.482422 0)"/>
     <use xlink:href="#TimesNewRomanPSMT-6c" transform="translate(194.482422 0)"/>
     <use xlink:href="#TimesNewRomanPSMT-61" transform="translate(222.265625 0)"/>
     <use xlink:href="#TimesNewRomanPSMT-74" transform="translate(266.650391 0)"/>
     <use xlink:href="#TimesNewRomanPSMT-69" transform="translate(294.433594 0)"/>
     <use xlink:href="#TimesNewRomanPSMT-6f" transform="translate(322.216797 0)"/>
     <use xlink:href="#TimesNewRomanPSMT-6e" transform="translate(372.216797 0)"/>
    </g>
   </g>
  </g>
 </g>
 <defs>
  <clipPath id="pca6eac846f">
   <rect x="62.92" y="38.20024" width="442.27952" height="306.630458"/>
  </clipPath>
 </defs>
</svg>
